<?xml version="1.0" standalone="no"?>
<!DOCTYPE svg PUBLIC "-//W3C//DTD SVG 20010904//EN"
 "http://www.w3.org/TR/2001/REC-SVG-20010904/DTD/svg10.dtd">
<svg version="1.0" xmlns="http://www.w3.org/2000/svg"
 width="1440.000000pt" height="1440.000000pt" viewBox="0 0 1440.000000 1440.000000"
 preserveAspectRatio="xMidYMid meet">
<metadata>
Created by potrace 1.14, written by Peter Selinger 2001-2017
</metadata>
<g transform="translate(0.000000,1440.000000) scale(0.100000,-0.100000)"
fill="#000000" stroke="none">
<path d="M4548 11995 c-2 -1 -48 -5 -103 -9 -55 -3 -111 -8 -125 -11 -14 -2
-56 -7 -95 -11 -96 -9 -99 -9 -110 -15 -6 -3 -25 -5 -42 -5 -18 1 -33 -1 -33
-4 0 -5 -46 -11 -97 -14 -13 0 -23 -3 -23 -6 0 -3 -8 -6 -17 -7 -10 -1 -29 -4
-43 -7 -14 -3 -38 -8 -55 -11 -16 -3 -43 -8 -60 -12 -16 -4 -34 -8 -40 -9 -5
-1 -55 -14 -110 -28 -55 -15 -107 -29 -115 -31 -8 -2 -16 -4 -17 -5 -2 -2 -6
-3 -10 -4 -5 -2 -28 -8 -53 -16 -25 -7 -49 -14 -55 -16 -5 -1 -44 -14 -85 -29
-41 -14 -79 -28 -85 -29 -5 -2 -23 -8 -38 -14 -16 -7 -34 -12 -41 -12 -6 0
-16 -4 -21 -9 -6 -5 -35 -18 -65 -29 -30 -11 -73 -28 -95 -38 -22 -10 -42 -18
-45 -19 -3 0 -52 -23 -110 -50 -57 -28 -106 -48 -108 -47 -3 2 -8 -2 -13 -10
-5 -7 -12 -13 -16 -13 -16 -1 -167 -83 -215 -117 -16 -11 -28 -17 -28 -14 0 3
-22 -10 -50 -27 -258 -167 -310 -202 -310 -209 0 -4 -7 -8 -15 -8 -8 0 -15 -4
-15 -10 0 -5 -7 -10 -15 -10 -7 0 -18 -6 -22 -13 -4 -8 -21 -22 -38 -33 -16
-10 -35 -23 -41 -29 -6 -5 -23 -19 -38 -30 -16 -11 -33 -24 -40 -30 -6 -5 -38
-32 -71 -60 -191 -159 -354 -318 -543 -529 -23 -26 -42 -51 -42 -56 0 -4 -4
-10 -9 -12 -16 -6 -247 -302 -272 -349 -6 -13 -15 -26 -19 -29 -10 -8 -140
-209 -140 -218 0 -4 -5 -13 -12 -20 -13 -13 -71 -113 -88 -152 -6 -13 -14 -27
-18 -30 -11 -8 -180 -358 -185 -383 -1 -6 -8 -18 -14 -25 -7 -7 -13 -21 -13
-30 0 -10 -7 -28 -16 -40 -8 -12 -13 -22 -10 -22 2 0 -6 -26 -18 -57 -13 -32
-27 -67 -31 -78 -24 -60 -56 -153 -60 -175 -3 -14 -10 -34 -15 -45 -9 -19 -84
-293 -94 -345 -3 -14 -16 -73 -29 -133 -13 -59 -23 -119 -22 -132 0 -14 -2
-25 -6 -25 -3 0 -6 -6 -6 -12 -1 -13 -11 -93 -18 -138 -10 -62 -20 -160 -32
-305 -14 -173 -6 -732 12 -825 2 -14 7 -56 11 -95 7 -82 11 -111 19 -145 3
-14 8 -45 11 -70 3 -25 7 -53 10 -62 3 -10 7 -30 10 -45 2 -16 10 -53 16 -83
6 -30 12 -59 13 -65 1 -5 3 -12 4 -15 2 -3 4 -13 6 -24 3 -15 12 -54 30 -126
1 -3 5 -18 9 -35 4 -16 12 -43 18 -58 6 -15 12 -36 13 -45 1 -9 4 -24 7 -32 4
-8 21 -62 39 -120 18 -58 39 -116 46 -130 7 -14 13 -29 13 -35 0 -21 76 -201
154 -369 31 -65 56 -120 56 -123 0 -3 10 -19 22 -36 13 -18 22 -33 20 -35 -5
-4 121 -226 130 -230 4 -2 8 -9 8 -15 0 -6 11 -27 23 -46 13 -20 51 -76 83
-126 32 -49 62 -91 67 -93 4 -2 7 -8 7 -13 0 -11 60 -92 73 -97 4 -2 7 -10 7
-18 0 -7 9 -19 20 -26 11 -7 20 -16 20 -21 0 -8 102 -139 130 -167 8 -8 31
-35 51 -60 77 -94 291 -314 405 -415 37 -33 76 -68 86 -78 10 -9 23 -17 28
-17 6 0 10 -4 10 -9 0 -4 21 -25 48 -45 67 -51 100 -78 119 -98 10 -10 23 -18
29 -18 7 0 14 -3 16 -7 4 -11 96 -79 193 -144 44 -30 82 -57 83 -62 2 -4 8 -5
13 -1 5 3 9 2 9 -3 0 -4 13 -14 28 -21 16 -6 38 -21 50 -32 12 -11 28 -20 36
-20 8 0 16 -4 18 -8 3 -10 288 -167 301 -167 4 0 12 -7 17 -15 5 -8 10 -12 10
-7 0 4 19 -3 43 -15 23 -12 44 -23 47 -23 3 -1 27 -12 55 -24 127 -57 147 -65
158 -63 4 1 7 -2 7 -8 0 -5 6 -10 13 -10 10 0 133 -44 192 -69 31 -13 146 -53
164 -56 9 -2 18 -4 21 -5 3 -1 8 -2 13 -1 4 0 7 -3 7 -7 0 -4 8 -8 18 -8 9 -1
76 -18 147 -37 72 -20 139 -38 150 -40 11 -1 26 -6 33 -10 6 -5 12 -6 12 -3 0
2 26 -2 58 -9 31 -7 74 -16 96 -19 21 -4 41 -8 45 -10 3 -2 29 -7 56 -10 49
-6 90 -13 90 -16 0 -1 20 -3 45 -5 25 -1 61 -6 80 -9 19 -3 62 -8 95 -11 33
-3 96 -8 140 -12 44 -4 197 -7 340 -7 222 -1 335 4 500 20 17 2 54 5 84 8 30
3 61 8 70 10 19 5 108 18 134 20 9 0 17 3 17 6 0 3 12 5 28 4 15 0 48 5 75 12
26 7 50 13 52 13 3 1 6 1 8 2 1 0 13 2 27 4 39 5 115 22 115 25 0 1 9 3 19 5
51 10 163 39 177 46 9 5 31 11 49 14 18 3 41 10 51 16 11 5 19 7 19 3 0 -3 7
-1 15 6 8 6 19 9 25 5 5 -3 10 -1 10 6 0 7 3 10 6 6 4 -3 23 1 43 9 20 9 43
17 51 19 9 2 58 20 110 40 52 20 100 38 105 39 6 1 20 7 31 14 12 6 24 8 28 5
3 -3 6 -2 6 4 0 6 11 14 25 17 14 4 67 26 118 50 50 24 115 54 142 67 28 12
52 26 55 29 3 3 25 14 50 25 25 11 47 22 50 26 9 11 94 54 110 54 8 1 20 -2
25 -6 32 -21 207 -113 218 -114 4 0 12 -7 17 -15 5 -8 10 -12 10 -7 0 4 19 -3
43 -15 23 -12 44 -23 47 -23 5 -2 79 -35 135 -60 16 -8 55 -24 85 -35 30 -12
69 -28 85 -35 17 -8 57 -23 90 -34 33 -11 84 -29 114 -40 29 -11 63 -21 75
-23 11 -2 23 -6 26 -10 3 -4 20 -9 37 -13 18 -3 45 -10 60 -16 15 -6 29 -10
30 -10 2 0 8 -1 15 -3 30 -9 175 -46 198 -50 14 -2 25 -5 25 -6 0 -1 11 -3 25
-6 14 -2 45 -8 70 -14 25 -5 59 -12 75 -15 17 -4 44 -9 60 -12 17 -3 39 -7 50
-8 11 -1 20 -3 20 -4 0 -1 16 -4 35 -6 76 -9 126 -15 155 -19 184 -29 677 -41
910 -24 153 12 209 17 240 22 81 14 186 29 208 30 9 0 17 3 17 6 0 3 12 5 28
4 15 0 48 5 75 12 26 7 47 10 47 7 0 -3 6 0 13 6 8 6 16 9 18 6 3 -2 25 1 49
6 25 6 52 12 60 14 62 13 192 48 223 60 20 8 37 13 37 10 0 -3 16 1 35 9 19 8
35 12 35 9 0 -3 7 0 15 7 8 6 19 9 25 5 5 -3 10 -1 10 6 0 7 3 10 6 6 4 -3 23
1 43 9 20 9 44 17 55 19 24 6 104 36 136 52 14 7 32 13 40 13 9 0 20 4 25 9 6
5 35 18 65 29 30 11 104 43 163 71 60 28 111 51 114 51 3 0 18 9 34 21 16 11
29 18 29 15 0 -7 165 83 213 116 15 11 27 17 27 14 0 -3 22 10 49 27 28 18 79
50 116 72 36 22 78 50 93 63 15 12 35 25 45 28 9 3 17 10 17 15 0 5 6 9 13 9
6 0 26 13 44 28 18 15 48 38 68 52 19 14 44 32 55 41 10 8 31 24 45 35 15 10
32 24 39 29 6 6 38 32 71 60 71 59 60 49 176 155 146 134 337 332 395 411 11
16 24 26 27 22 4 -3 7 1 7 9 0 9 3 18 8 20 4 2 30 32 57 68 28 35 58 73 67 84
10 11 30 38 45 60 16 23 38 52 51 66 12 14 22 30 22 37 0 6 3 13 8 15 4 2 25
30 47 63 21 33 43 62 47 63 4 2 6 7 3 12 -2 4 4 15 15 25 11 10 20 22 20 26 0
5 16 33 35 64 20 30 34 56 33 57 -2 2 7 17 20 35 12 17 22 36 22 42 0 6 3 11
8 11 4 0 20 28 37 63 16 34 32 64 35 67 5 5 73 140 76 150 0 3 13 32 28 65 31
65 49 107 50 115 1 3 4 10 8 15 24 39 163 427 183 515 2 8 4 15 5 15 1 0 3 7
5 15 2 8 16 60 30 115 15 55 28 107 30 115 2 8 6 26 9 40 3 14 8 36 10 50 2
14 9 45 14 70 6 25 13 63 16 85 4 23 9 52 11 65 3 14 8 48 11 75 4 28 8 53 11
58 2 4 6 37 9 73 2 36 6 77 8 91 20 106 28 672 13 833 -4 41 -9 102 -12 135
-3 33 -8 78 -12 100 -3 22 -7 56 -9 75 -1 19 -3 35 -4 35 -2 0 -8 34 -14 80
-6 50 -10 74 -37 200 -11 55 -22 107 -24 115 -9 42 -54 208 -63 231 -6 15 -8
29 -6 32 3 3 1 13 -5 24 -8 15 -29 77 -75 218 -3 12 -7 21 -48 130 -17 44 -39
99 -49 122 -11 24 -19 45 -19 48 0 2 -27 61 -60 131 -33 69 -60 129 -60 131 0
3 -9 18 -21 34 -11 16 -17 29 -13 29 4 0 1 8 -7 18 -8 9 -25 40 -39 67 -14 28
-27 52 -30 55 -3 3 -11 16 -18 29 -8 13 -22 38 -31 55 -40 69 -86 141 -93 144
-4 2 -8 8 -8 14 0 9 -56 96 -69 108 -3 3 -12 17 -20 33 -8 15 -18 27 -23 27
-4 0 -8 7 -8 15 0 8 -3 15 -7 15 -5 0 -24 25 -43 55 -19 30 -41 54 -49 55 -8
0 -12 3 -8 6 5 5 -101 147 -122 164 -3 3 -31 34 -61 70 -63 75 -74 87 -196
212 -50 51 -128 127 -174 168 -45 41 -92 85 -103 97 -11 12 -24 20 -29 17 -4
-3 -8 -1 -8 4 0 6 -27 32 -61 59 -33 26 -72 58 -87 71 -15 13 -39 30 -54 40
-16 9 -28 20 -28 24 0 4 -6 8 -14 8 -8 0 -16 3 -18 8 -5 12 -86 72 -97 72 -5
0 -11 4 -13 8 -3 8 -185 132 -193 132 -2 0 -23 13 -47 29 -24 16 -74 45 -113
66 -38 21 -74 41 -80 45 -20 15 -175 91 -181 90 -4 -1 -10 2 -13 7 -9 14 -280
133 -416 183 -33 13 -69 26 -80 30 -78 31 -104 38 -109 33 -3 -4 -6 0 -6 7 0
7 -3 11 -6 8 -5 -6 -73 13 -119 32 -11 5 -31 11 -45 13 -14 3 -77 19 -140 36
-63 16 -126 32 -140 35 -14 3 -36 7 -50 10 -14 3 -36 8 -50 11 -50 11 -76 15
-110 20 -19 3 -45 8 -58 11 -12 2 -44 7 -70 10 -26 3 -54 7 -62 9 -8 3 -42 7
-75 10 -33 4 -76 8 -95 10 -230 27 -802 27 -960 0 -14 -2 -56 -7 -95 -11 -96
-9 -99 -9 -110 -15 -6 -3 -25 -5 -42 -5 -18 1 -33 -1 -33 -4 0 -5 -46 -11 -97
-14 -13 0 -23 -3 -23 -6 0 -3 -8 -6 -17 -7 -10 -1 -29 -4 -43 -7 -14 -3 -34
-7 -45 -9 -11 -2 -38 -8 -60 -12 -70 -14 -213 -51 -276 -71 -25 -9 -52 -16
-60 -17 -8 -2 -20 -6 -26 -10 -7 -5 -13 -6 -13 -3 0 3 -20 -3 -45 -14 -25 -11
-49 -20 -53 -20 -13 0 -106 -32 -182 -62 -41 -17 -79 -31 -85 -32 -5 -1 -20
-7 -31 -14 -12 -6 -24 -8 -28 -5 -3 3 -6 2 -6 -4 0 -6 -11 -14 -24 -17 -13 -3
-58 -22 -99 -41 -41 -19 -80 -35 -86 -35 -6 0 -11 -4 -11 -10 0 -5 -4 -10 -10
-10 -15 0 -123 -52 -142 -68 -10 -8 -18 -12 -18 -8 0 3 -18 -5 -40 -19 -22
-14 -44 -25 -50 -25 -5 0 -10 -3 -10 -7 0 -8 -47 -33 -62 -33 -4 0 -31 14 -59
31 -111 65 -429 219 -453 219 -8 0 -16 5 -18 10 -2 6 -12 12 -23 14 -11 3 -67
23 -125 46 -95 38 -261 96 -300 105 -8 2 -16 4 -17 5 -3 3 -3 3 -53 14 -19 5
-39 11 -45 15 -5 3 -12 6 -15 6 -12 1 -196 47 -210 52 -8 3 -24 7 -35 8 -11 2
-51 10 -90 18 -38 9 -73 13 -77 11 -4 -3 -8 -1 -8 5 0 5 -11 8 -25 6 -14 -1
-27 1 -30 5 -2 4 -17 7 -32 8 -15 0 -57 6 -93 12 -36 6 -83 12 -105 14 -44 4
-160 16 -215 23 -40 4 -617 12 -622 8z"/>
</g>
</svg>
